<?xml version="1.0" standalone="no"?><!DOCTYPE svg PUBLIC "-//W3C//DTD SVG 1.1//EN" "http://www.w3.org/Graphics/SVG/1.1/DTD/svg11.dtd"><svg t="1765337727094" class="icon" viewBox="0 0 1024 1024" version="1.1" xmlns="http://www.w3.org/2000/svg" p-id="1799" xmlns:xlink="http://www.w3.org/1999/xlink" width="200" height="200"><path d="M524.45696 149.33504l20.52608 102.656h356.94592c32.04608 0 57.94304 29.22496 58.07104 65.152v500.05504c0 36.77696-25.55904 65.19296-58.07104 65.19296H508.544c-32.42496 0-58.112-28.45696-58.112-65.11104v-78.41792H164.77696c-55.552 0-100.77696-37.55008-100.77696-83.50208V232.832c0-46.37696 45.35296-83.49696 100.77696-83.49696h359.68z m380.288 165.41696l-349.26592 0.42496 86.272 423.55712H512v18.8928l-0.04096 8.54016v56.576l0.04096 1.152h0.768l0.93696-0.04096h7.424l2.816-0.0512 35.63008-0.03584h220.49792l14.25408 0.04096h60.88192l16.128 0.04608h33.408v-1.92l-0.04096-2.432-0.04096-32.0512v-238.97088l0.04096-13.824 0.04096-115.75296V314.752z m-198.656 90.45504l4.39808 6.22592a419.45088 419.45088 0 0 1 23.76192 41.39008l3.50208 5.80096h110.848v38.23104h-54.06208c-10.15296 49.44896-29.99296 90.44992-59.47392 121.68192l0.08192-0.08192 6.912 4.352c21.97504 12.96896 52.224 24.23296 90.45504 33.87392l13.01504 3.11808 10.24 2.08896-4.78208 9.728-5.12 12.59008c-3.88096 6.656-6.144 10.4448-7.97696 12.928l-3.49696 5.80096-7.04-2.13504c-57.088-18.76992-97.45408-37.16096-123.136-55.552a402.70848 402.70848 0 0 1-36.48 21.33504l-7.89504-39.63904a112.34304 112.34304 0 0 0 13.99296-8.40704 249.6512 249.6512 0 0 1-20.48-26.66496l-26.496-133.248h62.16704c-3.41504-6.272-8.32-14.976-15.36-27.94496l-3.49696-7.51104 35.92192-17.92v-0.04096z m46.16704 91.648h-98.13504l3.15904 11.60192a212.9408 212.9408 0 0 0 39.808 74.45504l8.02304 9.17504a189.53728 189.53728 0 0 0 47.14496-95.232z m-425.43104-188.928h-193.28v276.90496h199.38304v-38.95296H175.36V461.99296h142.63296v-39.68H175.36V348.8h151.46496v-40.87296zM466.26304 376.832l-6.656 0.04096c-10.79808-0.42496-21.504 2.13504-30.80704 7.34208a55.88992 55.88992 0 0 0-22.016 21.84192v-25.00096h-38.99904V584.704h38.99904V460.71296c2.72896-28.36992 18.60096-43.85792 48.04096-46.28992 22.016 0.04096 33.45408 15.05792 33.45408 45.13792v125.27104h40.52992V455.38304c1.75104-54.19008-21.58592-80.256-69.12-78.51008l6.57408-0.04096z" fill="#0CB060" p-id="1800"></path></svg>